# xmcd
#
# Track frame offsets: 
#        150
#        18173
#        29551
#        42849
#        55959
#        68927
#        82232
#        98830
#        111003
#        126243
#        139713
#        151818
#        159829
#        174154
#
# Disc length: 2535 seconds
#
# Revision: 0
# Processed by: cddbd v1.5.2PL0 Copyright (c) Steve Scherf et al.
# Submitted via: ExactAudioCopy v1.0b1
#
DISCID=af09e50e
DTITLE=Steve Miller Band - Let Your Hair Down
DYEAR=2011
DGENRE=
TTITLE0=Snatch It Back And Hold It
TTITLE1=I Got Love If You Want It
TTITLE2=Just A Little Bit
TTITLE3=Close Together
TTITLE4=No More Doggin'
TTITLE5=Pretty Thing
TTITLE6=Can't Be Satisfied
TTITLE7=Sweet Home Chicago
TTITLE8=Love The Life I Live
TTITLE9=The Walk
TTITLE10=When Things Go Wrong [It Hurts Me Too]
TTITLE11=I Ain't Got You
TTITLE12=Tell Me What's The Reason
TTITLE13=Driftin' Blues
EXTD=
EXTT0=
EXTT1=
EXTT2=
EXTT3=
EXTT4=
EXTT5=
EXTT6=
EXTT7=
EXTT8=
EXTT9=
EXTT10=
EXTT11=
EXTT12=
EXTT13=
PLAYORDER=
